<?xml version="1.0" standalone="no"?>
<!DOCTYPE svg PUBLIC "-//W3C//DTD SVG 1.1//EN" "http://www.w3.org/Graphics/SVG/1.1/DTD/svg11.dtd" >
<svg>
<metadata>
Created by FontForge 20120731 at Tue Nov  3 10:48:07 2020
 By ffonts
TKK Studio
</metadata>
<defs>
<font id="JungleAdventurerRegular" horiz-adv-x="0" >
  <font-face 
    font-family="Jungle Adventurer"
    font-weight="400"
    font-stretch="normal"
    units-per-em="1000"
    panose-1="0 0 0 0 0 0 0 0 0 0"
    ascent="800"
    descent="-200"
    x-height="629"
    cap-height="691"
    bbox="-10.1698 -95 867 788"
    underline-thickness="50"
    underline-position="-100"
    unicode-range="U+000A-201E"
  />
<missing-glyph horiz-adv-x="527" 
d="M50 700h427v-700h-427v700zM78 680l185 -309l186 309h-371zM251 350l-180 300v-601zM264 329l-185 -308h370zM276 350l181 -303v605z" />
    <glyph glyph-name=".notdef" horiz-adv-x="527" 
d="M50 700h427v-700h-427v700zM78 680l185 -309l186 309h-371zM251 350l-180 300v-601zM264 329l-185 -308h370zM276 350l181 -303v605z" />
    <glyph glyph-name="uni0000" 
 />
    <glyph glyph-name="uni0000" 
 />
    <glyph glyph-name="nonmarkingreturn" horiz-adv-x="333" 
 />
    <glyph glyph-name="LF" unicode="&#xa;" 
 />
    <glyph glyph-name="controlCR" unicode="&#xd;" 
 />
    <glyph glyph-name="space" unicode=" " horiz-adv-x="292" 
 />
    <glyph glyph-name="exclam" unicode="!" horiz-adv-x="231" 
d="M54 208l-27 475l165 -3l-18 -472h-120zM117 160q36 0 61.5 -25.5t25.5 -61.5t-25.5 -60t-61.5 -24q-34 0 -59 24.5t-25 59.5q0 24 11.5 44t31 31.5t41.5 11.5z" />
    <glyph glyph-name="quotedbl" unicode="&#x22;" horiz-adv-x="305" 
d="M139 686l3 -84l-45 -90l-45 15l12 72l-51 6l9 81h117zM286 686l3 -84l-45 -90l-45 15l12 72l-51 6l9 81h117z" />
    <glyph glyph-name="numbersign" unicode="#" horiz-adv-x="513" 
d="M215 88l-96 -3l-6 123l-93 3v78l90 3l-3 54l-87 3v81l84 3l-6 127l132 -3l-6 -120l60 2l-6 121l129 -3l-3 -115l88 3l-3 -108l-87 3v-36l90 3l-3 -108l-94 3l-2 -114l-94 -3l-6 120h-75zM287 343h-66v-45l69 3z" />
    <glyph glyph-name="dollar" unicode="$" horiz-adv-x="401" 
d="M358 433l-126 -21q0 2 1 11t-4.5 20.5t-17.5 13.5q-18 3 -36.5 -23t-2.5 -49q6 -7 31 -11.5t54 -9.5t58 -15t48.5 -34.5t19.5 -61.5q2 -44 -24 -82.5t-70 -61.5l12 -111h-84v93q-6 -3 -15 -3v-90h-87l12 99q-51 13 -111 54l63 108q31 -30 91.5 -43t70.5 13
q2 9 -13.5 16.5t-40.5 12.5t-54 15.5t-54 23.5t-40.5 37.5t-13.5 56.5q4 60 32.5 104t72.5 68l-15 123h87v-99h15v99h84l-12 -111q34 -17 53 -53.5t16 -88.5z" />
    <glyph glyph-name="percent" unicode="%" horiz-adv-x="643" 
d="M497 25q-56 -2 -99 35t-46 94q-1 36 12 71t46.5 61t80.5 24q56 0 96.5 -38.5t38.5 -108.5q0 -25 -7.5 -48t-22 -43t-40.5 -33t-59 -14zM163 370q-56 -2 -100.5 34.5t-46.5 95.5q-1 35 12 69.5t47 60.5t82 26q37 -2 67 -17.5t50 -49t18 -80.5q0 -54 -33 -95.5t-96 -43.5z
M151 587q-15 -1 -24.5 -25.5t-10 -53t10 -52t30.5 -23.5q26 0 35 40.5t-3 79t-38 34.5zM112 16l-75 60l469 598l102 -84zM485 244q-21 -3 -30 -41.5t0.5 -76.5t35.5 -38q15 0 25 16.5t11.5 40t-2 47t-14.5 39t-26 13.5z" />
    <glyph glyph-name="ampersand" unicode="&#x26;" horiz-adv-x="663" 
d="M352 388h-1l262 3v-129h-81q-12 -110 -80.5 -182t-175.5 -79q-60 -5 -117.5 14.5t-98 65.5t-42.5 109q-2 46 21.5 85.5t65.5 64.5q-57 62 -48 150q6 59 41 108.5t90 74t112 10.5q45 -11 73 -39.5t38 -66t7 -78.5t-19 -81l-117 42q1 2 2 7q3 12 5 19.5t3.5 22t0.5 23.5
t-6.5 17t-16.5 11q-26 6 -48 -14t-33 -50q-8 -30 -2.5 -50.5t24.5 -33.5t41.5 -18.5t48.5 -5.5l2 -126q-19 0 -44 -3.5t-52.5 -11t-45.5 -22.5t-17 -35q2 -22 24.5 -37.5t49 -21.5t49.5 -4q58 5 92.5 40t46.5 95l-54 -3v129z" />
    <glyph glyph-name="quotesingle" unicode="'" horiz-adv-x="161" 
d="M139 686l6 -84l-48 -90l-45 15l15 72l-54 6l9 81h117z" />
    <glyph glyph-name="parenleft" unicode="(" horiz-adv-x="342" 
d="M174 788l114 -102l-12 -19t-31.5 -58t-34.5 -82q-28 -81 -33 -178q-4 -87 27 -186q26 -82 87 -162l-117 -96q-74 91 -114 210q-36 108 -36 240q4 105 42 220q12 35 27.5 69.5t29 59t25.5 44t19 29.5t7 11z" />
    <glyph glyph-name="parenright" unicode=")" horiz-adv-x="343" 
d="M53 686l114 102q2 -2 8.5 -11.5t19 -29t26 -44t29.5 -59t28 -69.5q35 -105 39 -220q5 -118 -36 -240q-31 -107 -111 -210l-120 96q58 71 87 162q30 95 30 186q-3 77 -33 177q-16 45 -36 84.5t-31 55.5t-14 20z" />
    <glyph glyph-name="asterisk" unicode="*" horiz-adv-x="305" 
d="M41 641l72 -27l-6 75h90l-6 -78l72 30l27 -87l-75 -18l51 -61l-75 -51l-39 67l-42 -67l-72 54l51 61l-75 18z" />
    <glyph glyph-name="plus" unicode="+" horiz-adv-x="397" 
d="M19 274l-3 135h111v112l144 3l-3 -112h111v-141h-111v-108l-138 -3v111z" />
    <glyph glyph-name="comma" unicode="," horiz-adv-x="177" 
d="M98 148q32 -4 50 -28t13 -56q-3 -39 -57 -129l-54 27l24 39q-28 7 -45 30t-15 51q5 31 29.5 49.5t54.5 16.5z" />
    <glyph glyph-name="hyphen" unicode="-" horiz-adv-x="396" 
d="M19 265l-3 150l363 3v-156z" />
    <glyph glyph-name="period" unicode="." horiz-adv-x="176" 
d="M161 73q0 -29 -22 -50.5t-53 -21.5q-29 0 -50.5 21.5t-21.5 50.5q0 31 21.5 53t50.5 22q32 0 53.5 -21.5t21.5 -53.5z" />
    <glyph glyph-name="slash" unicode="/" horiz-adv-x="430" 
d="M233 704l147 -39q-24 -96 -89.5 -341t-93.5 -353l-147 42z" />
    <glyph glyph-name="zero" unicode="0" horiz-adv-x="512" 
d="M268 4q-95 -5 -168.5 82.5t-78.5 223.5q-2 49 6 100.5t26.5 101.5t45.5 89t68.5 62.5t91.5 22.5q44 -1 84.5 -24t74.5 -65t53.5 -110t18.5 -153q-1 -59 -14.5 -114.5t-39 -104t-69 -79t-99.5 -32.5zM250 527q-21 -5 -36.5 -44.5t-20 -93.5t-1 -107.5t20 -90.5t43.5 -37
q43 0 59.5 96.5t-3.5 190t-62 86.5z" />
    <glyph glyph-name="one" unicode="1" horiz-adv-x="270" 
d="M73 683l150 3l15 -685l-168 -3l3 504l-54 7l3 99z" />
    <glyph glyph-name="two" unicode="2" horiz-adv-x="479" 
d="M173 415l-153 -3q-2 96 34 163t95 102q45 27 96 27q39 3 93 -18q35 -18 60.5 -44.5t41.5 -66.5t16 -88q0 -62 -26.5 -128t-72.5 -124q-30 -42 -78 -81l150 3l2 -150l-315 -6l-75 -3q-3 69 -3 174q60 17 121 67.5t102 119t41 128.5q0 53 -27 63q-18 7 -24 7
q-3 -1 -8.5 -2.5t-10 -3t-8.5 -3.5q-55 -34 -51 -133z" />
    <glyph glyph-name="three" unicode="3" horiz-adv-x="491" 
d="M421 499l-103 -75q48 -20 83.5 -51.5t55 -76t15.5 -94.5q-9 -84 -77 -145t-155 -68q-120 -9 -225 81l-9 6l99 114l9 -9q61 -50 117 -42q32 5 58.5 26.5t28.5 51.5q2 26 -19 45t-55.5 27t-62.5 11.5t-52 3.5h-12l-39 132l135 99h-165l3 150l370 -3v-183z" />
    <glyph glyph-name="four" unicode="4" horiz-adv-x="476" 
d="M267 716l126 -84l-225 -337l3 -21l108 6v162h153l-3 -153h15l9 -153h-24v-135h-153v126l-168 -9l-72 -6l-9 72l-12 120l-3 27l15 24z" />
    <glyph glyph-name="five" unicode="5" horiz-adv-x="480" 
d="M412 689l3 -150h-237l-3 -63q59 8 110 -5t86.5 -42.5t58 -70t27.5 -87.5q8 -55 -9 -105.5t-49.5 -86.5t-78 -58.5t-92.5 -27t-95 13t-84 57.5l111 99q16 -17 39.5 -20.5t45 5.5t38.5 29t21 46q7 38 -6.5 63.5t-40 34t-61 4.5t-69.5 -21l-105 72l9 310z" />
    <glyph glyph-name="six" unicode="6" horiz-adv-x="497" 
d="M322 704l81 -126q-8 -5 -23 -14t-52.5 -39.5t-65.5 -64.5q55 -5 99 -27q53 -28 85 -78q41 -65 33 -162q-7 -69 -44 -117t-92 -69q-36 -18 -102 -18q-54 5 -96 30q-58 31 -93.5 90.5t-35.5 140.5q0 57 17 112t44 98.5t59.5 83t65 68t60 49t44 32zM175 307q-6 -36 -6 -57
q0 -79 51 -105q14 -9 33 -9q21 0 30 3q11 5 20 14t15 23.5t7 31.5q8 44 -9 72q-9 12 -27 24q-23 12 -42 12q-44 5 -72 -9z" />
    <glyph glyph-name="seven" unicode="7" horiz-adv-x="458" 
d="M18 536v147l426 3l-3 -235l-3 -42l-36 -24q-8 -4 -21.5 -13t-49 -42.5t-63.5 -74t-53 -110.5t-29 -150l-153 6q4 80 25.5 154t49 125t63.5 96t63 70t54 44v46h-270z" />
    <glyph glyph-name="eight" unicode="8" horiz-adv-x="537" 
d="M249 304l-12 6q-101 -100 -54 -156q28 -32 87 -27q27 0 57 18q15 6 36 27q6 14 3 21q-5 10 -12.5 21t-14.5 18.5t-21 19t-21 17t-25 18.5t-23 17zM68 55q-34 39 -45.5 83t-5.5 81t25 76t38.5 65t41.5 49q-39 49 -39 115q0 76 45 126q38 41 94 51q42 12 99 -3
q82 -26 126 -96q68 -120 -27 -237q64 -54 87 -115q30 -85 -18 -162q-31 -48 -90 -78q-49 -27 -114 -36q-137 -11 -217 81zM234 524q0 -24 63 -70q5 5 10.5 11t10.5 15t4.5 20.5t-7.5 23.5q-14 22 -36 27q-9 3 -27 3q-2 -2 -6.5 -3.5t-5.5 -2.5q-6 -12 -6 -24z" />
    <glyph glyph-name="nine" unicode="9" horiz-adv-x="499" 
d="M175 -26l-78 126q69 42 135 111q-33 0 -60 9q-68 25 -108 72q-18 23 -29.5 50.5t-15.5 60.5q-3 15 -3 40q0 82 42 153q58 83 153 96h30q51 0 97.5 -21t79.5 -60q63 -68 63 -180q0 -57 -16.5 -112.5t-43 -99.5t-59.5 -84t-65 -68.5t-59.5 -50t-44.5 -32t-18 -10.5z
M325 373q6 37 6 58q0 52 -30 87q-22 27 -60 27h-9q-31 -5 -45 -27q-21 -37 -21 -75q0 -4 1.5 -9.5t1.5 -8.5q4 -27 15 -43q17 -17 36 -21q15 -6 51 -6q32 5 54 18z" />
    <glyph glyph-name="colon" unicode=":" horiz-adv-x="188" 
d="M92 331q32 0 53.5 -21.5t21.5 -53.5q0 -29 -22 -50.5t-53 -21.5q-29 0 -50.5 21.5t-21.5 50.5q0 32 21.5 53.5t50.5 21.5zM92 514q32 0 53.5 -21.5t21.5 -53t-21.5 -53.5t-53.5 -22q-19 0 -35.5 10t-26.5 27.5t-10 37.5q0 32 21.5 53.5t50.5 21.5z" />
    <glyph glyph-name="semicolon" unicode=";" horiz-adv-x="190" 
d="M104 331q20 -3 35.5 -14.5t23 -30t5.5 -39.5q-2 -13 -9.5 -33.5t-13 -31.5t-20 -37.5t-15.5 -26.5l-54 27l21 39q-26 7 -42.5 30.5t-14.5 50.5q5 32 29 51.5t55 14.5zM95 514q20 0 36.5 -9.5t26.5 -27t10 -38.5q0 -31 -21.5 -53t-51.5 -22q-31 0 -53 22t-22 53.5t22 53
t53 21.5z" />
    <glyph glyph-name="less" unicode="&#x3c;" horiz-adv-x="344" 
d="M330 247l-63 -90l-249 129l-3 111l240 145l66 -94l-195 -102z" />
    <glyph glyph-name="equal" unicode="=" horiz-adv-x="402" 
d="M22 226l-3 105l360 3l3 -111zM19 364l3 105l357 9v-111z" />
    <glyph glyph-name="greater" unicode="&#x3e;" horiz-adv-x="345" 
d="M74 157l-60 90l201 99l-192 102l66 94l240 -145l-6 -111z" />
    <glyph glyph-name="question" unicode="?" horiz-adv-x="467" 
d="M336 73q0 -36 -25.5 -60t-61.5 -24q-24 0 -44 11t-31.5 30.5t-11.5 42.5q0 36 25.5 61.5t61.5 25.5t61.5 -25.5t25.5 -61.5zM177 457l-126 -9q-5 63 14 117.5t63.5 91t108.5 41.5q89 4 152.5 -54t63.5 -147q0 -37 -6.5 -66.5t-22 -54.5t-26.5 -38.5t-32 -36.5
q-10 -9 -16 -16t-13.5 -17.5t-11.5 -20t-7 -23t-3 -28.5h-126q0 36 6 64t21 53t25 37.5t32 37.5q12 13 20 22t17 23t13 29.5t4 33.5q0 24 -11 41t-29 25t-41 7q-28 -2 -45 -20.5t-21.5 -41t-2.5 -50.5z" />
    <glyph glyph-name="at" unicode="@" horiz-adv-x="714" 
d="M532 172l87 -90q-48 -46 -113.5 -67.5t-136.5 -19.5q-98 3 -179 47.5t-128 123.5t-44 177q7 159 110 257.5t260 94.5q83 -3 150 -32.5t111 -88.5t48 -140q3 -51 -11.5 -101t-51 -88t-87.5 -43q-52 -4 -93 12q-58 -26 -102.5 -24.5t-78.5 24.5q-58 36 -68 106.5t35 121.5
q15 18 33.5 30t34.5 18.5t40 8t38.5 1.5t42 -5t38.5 -7.5t41 -9.5q-1 -7 -6.5 -32t-7.5 -42.5t-1.5 -37.5t11 -29.5t31.5 -8.5q18 2 28.5 39t7.5 57q-3 37 -19 64.5t-42.5 43.5t-57.5 24t-67 10q-106 4 -171 -57.5t-70 -168.5q-2 -95 64 -154.5t164 -64.5q31 -1 60 4
t54.5 17t45.5 30zM372 319q-6 31 -6 54q-18 0 -30 -12q-8 -9 -7 -22t10 -20q19 -6 33 0z" />
    <glyph glyph-name="A" unicode="A" horiz-adv-x="542" 
d="M172 -3l-171 12l135 682l240 6l169 -682l-199 -18l-18 102h-141zM208 249l93 3l-45 250h-12z" />
    <glyph glyph-name="A" unicode="&#xc5;" horiz-adv-x="542" 
d="M172 -3l-171 12l135 682l240 6l169 -682l-199 -18l-18 102h-141zM208 249l93 3l-45 250h-12z" />
    <glyph glyph-name="A" unicode="&#xc4;" horiz-adv-x="542" 
d="M172 -3l-171 12l135 682l240 6l169 -682l-199 -18l-18 102h-141zM208 249l93 3l-45 250h-12z" />
    <glyph glyph-name="A" unicode="&#xc3;" horiz-adv-x="542" 
d="M172 -3l-171 12l135 682l240 6l169 -682l-199 -18l-18 102h-141zM208 249l93 3l-45 250h-12z" />
    <glyph glyph-name="A" unicode="&#xc2;" horiz-adv-x="542" 
d="M172 -3l-171 12l135 682l240 6l169 -682l-199 -18l-18 102h-141zM208 249l93 3l-45 250h-12z" />
    <glyph glyph-name="A" unicode="&#xc1;" horiz-adv-x="542" 
d="M172 -3l-171 12l135 682l240 6l169 -682l-199 -18l-18 102h-141zM208 249l93 3l-45 250h-12z" />
    <glyph glyph-name="A" unicode="&#xc0;" horiz-adv-x="542" 
d="M172 -3l-171 12l135 682l240 6l169 -682l-199 -18l-18 102h-141zM208 249l93 3l-45 250h-12z" />
    <glyph glyph-name="B" unicode="B" horiz-adv-x="504" 
d="M386 402q118 -61 102 -204q-4 -44 -22 -78.5t-45.5 -56t-61.5 -36.5t-70.5 -21.5t-73 -9.5t-69 -1t-57.5 4t-39 5l-15 2v676q6 1 15.5 3.5t39 8t58 9.5t67 6t71.5 -0.5t66.5 -12t56.5 -25.5t37 -44t12 -65q-3 -102 -72 -160zM200 441q58 -1 83 38.5t0 77t-86 32.5z
M200 156q72 -1 102.5 38.5t0 78t-105.5 33.5z" />
    <glyph glyph-name="C" unicode="C" horiz-adv-x="539" 
d="M526 522l-180 -75q1 5 1.5 11.5t-2 24t-8 30.5t-20.5 22.5t-37 8.5q-41 -3 -61 -104.5t-3.5 -199.5t64.5 -93q11 2 22 10t18.5 18t13.5 20.5t9 16.5l3 7l190 -48q-20 -83 -89 -133t-155 -50q-52 0 -99.5 20t-88 60.5t-65 110t-26.5 160.5q-1 57 9.5 111t34 102t58 83.5
t84 56.5t108.5 20q53 -1 96.5 -21.5t68 -51t38.5 -60.5t16 -57z" />
    <glyph glyph-name="C" unicode="&#xc7;" horiz-adv-x="539" 
d="M526 522l-180 -75q1 5 1.5 11.5t-2 24t-8 30.5t-20.5 22.5t-37 8.5q-41 -3 -61 -104.5t-3.5 -199.5t64.5 -93q11 2 22 10t18.5 18t13.5 20.5t9 16.5l3 7l190 -48q-20 -83 -89 -133t-155 -50q-52 0 -99.5 20t-88 60.5t-65 110t-26.5 160.5q-1 57 9.5 111t34 102t58 83.5
t84 56.5t108.5 20q53 -1 96.5 -21.5t68 -51t38.5 -60.5t16 -57z" />
    <glyph glyph-name="D" unicode="D" horiz-adv-x="464" 
d="M32 697q90 8 163.5 -10t121.5 -53.5t79.5 -85.5t44.5 -105.5t11 -115.5q-4 -178 -118 -264.5t-296 -56.5zM182 171q37 -2 62.5 31.5t31.5 82.5t0.5 98.5t-31 85t-63.5 35.5v-333z" />
    <glyph glyph-name="E" unicode="E" horiz-adv-x="444" 
d="M36 688l375 18l6 -165h-201l-9 -118l129 -6l-3 -138l-126 3l-3 -117l225 -6l3 -162l-399 12z" />
    <glyph glyph-name="E" unicode="&#xcb;" horiz-adv-x="444" 
d="M36 688l375 18l6 -165h-201l-9 -118l129 -6l-3 -138l-126 3l-3 -117l225 -6l3 -162l-399 12z" />
    <glyph glyph-name="E" unicode="&#xca;" horiz-adv-x="444" 
d="M36 688l375 18l6 -165h-201l-9 -118l129 -6l-3 -138l-126 3l-3 -117l225 -6l3 -162l-399 12z" />
    <glyph glyph-name="E" unicode="&#xc9;" horiz-adv-x="444" 
d="M36 688l375 18l6 -165h-201l-9 -118l129 -6l-3 -138l-126 3l-3 -117l225 -6l3 -162l-399 12z" />
    <glyph glyph-name="E" unicode="&#xc8;" horiz-adv-x="444" 
d="M36 688l375 18l6 -165h-201l-9 -118l129 -6l-3 -138l-126 3l-3 -117l225 -6l3 -162l-399 12z" />
    <glyph glyph-name="F" unicode="F" horiz-adv-x="422" 
d="M36 697h375l6 -165l-198 9l-3 -94l159 -6l-3 -138l-156 3l18 -303l-201 6z" />
    <glyph glyph-name="G" unicode="G" horiz-adv-x="555" 
d="M527 523l-181 -76q-1 1 0.5 11t-2 25t-9 29.5t-21 23.5t-37.5 8q-34 -3 -52.5 -76.5t-16.5 -164.5q3 -70 21.5 -115t50.5 -41q28 3 48 26t30 55t14 60t4 51h157v-351h-154v75q-25 -40 -70.5 -56.5t-96 -2.5t-96 51t-75 112t-28.5 172q0 58 11 111t34 101.5t57 84
t83.5 56.5t108.5 20q53 -1 96.5 -21.5t68.5 -51t38.5 -60.5t16.5 -56z" />
    <glyph glyph-name="H" unicode="H" horiz-adv-x="586" 
d="M33 694l177 -3l9 -223h153l-12 232l175 -3l27 -688h-184l-6 291l-150 3l3 -294l-189 -3z" />
    <glyph glyph-name="I" unicode="I" horiz-adv-x="244" 
d="M37 688l165 3l12 -685l-183 -3z" />
    <glyph glyph-name="I" unicode="&#xcf;" horiz-adv-x="244" 
d="M37 688l165 3l12 -685l-183 -3z" />
    <glyph glyph-name="I" unicode="&#xce;" horiz-adv-x="244" 
d="M37 688l165 3l12 -685l-183 -3z" />
    <glyph glyph-name="I" unicode="&#xcd;" horiz-adv-x="244" 
d="M37 688l165 3l12 -685l-183 -3z" />
    <glyph glyph-name="I" unicode="&#xcc;" horiz-adv-x="244" 
d="M37 688l165 3l12 -685l-183 -3z" />
    <glyph glyph-name="J" unicode="J" horiz-adv-x="322" 
d="M2 18l6 201q4 -1 11 -3.5t25.5 -6t33.5 -4.5t30.5 4t22.5 16q6 17 5 65.5t-6.5 117t-12 130.5t-11.5 106l-5 44l165 9q3 -14 7 -38.5t12 -94.5t11.5 -134t0 -143.5t-18.5 -136.5q-10 -41 -30.5 -71t-45.5 -44.5t-52.5 -22t-53.5 -7t-47.5 3t-33.5 6.5z" />
    <glyph glyph-name="K" unicode="K" horiz-adv-x="506" 
d="M38 694l177 3v-328h24l54 331l189 -12l-120 -325l145 -321l-193 -39l-81 294h-18l6 -294l-189 -3z" />
    <glyph glyph-name="L" unicode="L" horiz-adv-x="397" 
d="M30 694h174l3 -511l192 -6v-165h-360z" />
    <glyph glyph-name="M" unicode="M" horiz-adv-x="702" 
d="M35 694l255 6l66 -292h3l90 289l208 -3l18 -688l-196 3l9 429h-12l-51 -243l-141 -9l-66 246l-9 -3l9 -426l-183 -6v697z" />
    <glyph glyph-name="N" unicode="N" horiz-adv-x="533" 
d="M40 700h210l111 -358h6l-30 352l159 3l3 -691l-153 -6l-150 402h-12l24 -399h-177z" />
    <glyph glyph-name="N" unicode="&#xd1;" horiz-adv-x="533" 
d="M40 700h210l111 -358h6l-30 352l159 3l3 -691l-153 -6l-150 402h-12l24 -399h-177z" />
    <glyph glyph-name="O" unicode="O" horiz-adv-x="541" 
d="M263 544q-23 -5 -39.5 -47t-21 -99.5t-1 -114.5t22.5 -96.5t48 -39.5q48 0 65 103t-5.5 202.5t-68.5 91.5zM284 -15q-51 -2 -99 21t-85 66t-60.5 106.5t-26.5 136.5q-2 52 6.5 106.5t29 108t50.5 94.5t75.5 66.5t100.5 24.5q48 -1 92.5 -25t81 -68.5t58 -118t20.5 -164.5
q-1 -49 -10 -97t-28 -93.5t-46.5 -80.5t-68.5 -57.5t-90 -25.5z" />
    <glyph glyph-name="O" unicode="&#xd8;" horiz-adv-x="541" 
d="M263 544q-23 -5 -39.5 -47t-21 -99.5t-1 -114.5t22.5 -96.5t48 -39.5q48 0 65 103t-5.5 202.5t-68.5 91.5zM284 -15q-51 -2 -99 21t-85 66t-60.5 106.5t-26.5 136.5q-2 52 6.5 106.5t29 108t50.5 94.5t75.5 66.5t100.5 24.5q48 -1 92.5 -25t81 -68.5t58 -118t20.5 -164.5
q-1 -49 -10 -97t-28 -93.5t-46.5 -80.5t-68.5 -57.5t-90 -25.5z" />
    <glyph glyph-name="O" unicode="&#xd6;" horiz-adv-x="541" 
d="M263 544q-23 -5 -39.5 -47t-21 -99.5t-1 -114.5t22.5 -96.5t48 -39.5q48 0 65 103t-5.5 202.5t-68.5 91.5zM284 -15q-51 -2 -99 21t-85 66t-60.5 106.5t-26.5 136.5q-2 52 6.5 106.5t29 108t50.5 94.5t75.5 66.5t100.5 24.5q48 -1 92.5 -25t81 -68.5t58 -118t20.5 -164.5
q-1 -49 -10 -97t-28 -93.5t-46.5 -80.5t-68.5 -57.5t-90 -25.5z" />
    <glyph glyph-name="O" unicode="&#xd5;" horiz-adv-x="541" 
d="M263 544q-23 -5 -39.5 -47t-21 -99.5t-1 -114.5t22.5 -96.5t48 -39.5q48 0 65 103t-5.5 202.5t-68.5 91.5zM284 -15q-51 -2 -99 21t-85 66t-60.5 106.5t-26.5 136.5q-2 52 6.5 106.5t29 108t50.5 94.5t75.5 66.5t100.5 24.5q48 -1 92.5 -25t81 -68.5t58 -118t20.5 -164.5
q-1 -49 -10 -97t-28 -93.5t-46.5 -80.5t-68.5 -57.5t-90 -25.5z" />
    <glyph glyph-name="O" unicode="&#xd4;" horiz-adv-x="541" 
d="M263 544q-23 -5 -39.5 -47t-21 -99.5t-1 -114.5t22.5 -96.5t48 -39.5q48 0 65 103t-5.5 202.5t-68.5 91.5zM284 -15q-51 -2 -99 21t-85 66t-60.5 106.5t-26.5 136.5q-2 52 6.5 106.5t29 108t50.5 94.5t75.5 66.5t100.5 24.5q48 -1 92.5 -25t81 -68.5t58 -118t20.5 -164.5
q-1 -49 -10 -97t-28 -93.5t-46.5 -80.5t-68.5 -57.5t-90 -25.5z" />
    <glyph glyph-name="O" unicode="&#xd3;" horiz-adv-x="541" 
d="M263 544q-23 -5 -39.5 -47t-21 -99.5t-1 -114.5t22.5 -96.5t48 -39.5q48 0 65 103t-5.5 202.5t-68.5 91.5zM284 -15q-51 -2 -99 21t-85 66t-60.5 106.5t-26.5 136.5q-2 52 6.5 106.5t29 108t50.5 94.5t75.5 66.5t100.5 24.5q48 -1 92.5 -25t81 -68.5t58 -118t20.5 -164.5
q-1 -49 -10 -97t-28 -93.5t-46.5 -80.5t-68.5 -57.5t-90 -25.5z" />
    <glyph glyph-name="O" unicode="&#xd2;" horiz-adv-x="541" 
d="M263 544q-23 -5 -39.5 -47t-21 -99.5t-1 -114.5t22.5 -96.5t48 -39.5q48 0 65 103t-5.5 202.5t-68.5 91.5zM284 -15q-51 -2 -99 21t-85 66t-60.5 106.5t-26.5 136.5q-2 52 6.5 106.5t29 108t50.5 94.5t75.5 66.5t100.5 24.5q48 -1 92.5 -25t81 -68.5t58 -118t20.5 -164.5
q-1 -49 -10 -97t-28 -93.5t-46.5 -80.5t-68.5 -57.5t-90 -25.5z" />
    <glyph glyph-name="P" unicode="P" horiz-adv-x="468" 
d="M35 6v676q239 62 357 -27q79 -60 73 -163q-5 -101 -86 -176q-75 -68 -182 -82l3 -231zM194 568l3 -169q58 -1 82.5 43.5t0 87.5t-85.5 38z" />
    <glyph glyph-name="Q" unicode="Q" horiz-adv-x="551" 
d="M263 544q-27 -6 -44.5 -69t-18.5 -135.5t17.5 -132.5t54.5 -60q8 0 20 6l-29 57l63 66l12 -12q7 64 2.5 128.5t-26.5 110.5t-51 41zM407 -87l-45 90q-38 -14 -78 -18q-41 -2 -80 12.5t-72.5 43.5t-59.5 69t-41.5 93t-17.5 112q-2 52 6.5 106.5t29 108t50.5 94.5
t75.5 66.5t100.5 24.5q49 -1 94.5 -25t82 -69t57 -118t18.5 -164q0 -126 -54 -225l66 -72z" />
    <glyph glyph-name="R" unicode="R" horiz-adv-x="491" 
d="M35 6v676q241 62 359 -28q79 -61 73 -164q-6 -100 -87 -175l-18 -15l121 -261l-193 -39l-66 240q-4 -1 -8.5 -2t-9.5 -1.5t-9 -2.5l3 -231zM194 568l3 -169q60 -1 85 43.5t-0.5 87.5t-87.5 38z" />
    <glyph glyph-name="S" unicode="S" horiz-adv-x="536" 
d="M489 484l-177 -30q-1 2 1 14.5t-5 29t-23 19.5t-36.5 -13t-27.5 -39t7 -47q8 -10 33.5 -16t58 -10t69 -14t66.5 -25.5t50 -47.5t21 -77q0 -46 -20 -88t-55 -73.5t-85 -49.5t-106 -19t-122 21.5t-129 67.5l90 150q27 -26 78 -45.5t95.5 -19t51.5 25.5q4 12 -17.5 22
t-56.5 17.5t-76 21.5t-76.5 32.5t-57.5 52.5t-19 79q8 139 113 220q86 66 186 59q101 -8 145 -89q29 -53 24 -129z" />
    <glyph glyph-name="T" unicode="T" horiz-adv-x="431" 
d="M128 511h-126l3 180h411l12 -177h-132l12 -508l-186 -3z" />
    <glyph glyph-name="U" unicode="U" horiz-adv-x="543" 
d="M45 697l166 -9q-5 -34 -8.5 -73.5t-8 -104t-2.5 -120.5t8.5 -108.5t24.5 -83.5t46 -30q30 2 49.5 33t26 82t8.5 106.5t-3 118t-9 103t-9 74.5l168 9q1 -10 3 -31q5 -52 8 -82.5t6.5 -90.5t2.5 -99t-5.5 -95t-15.5 -93t-29 -78.5t-44.5 -66t-65 -41t-85.5 -17.5
q-52 -1 -93 15.5t-69 42.5t-47 69.5t-29.5 82.5t-14 98t-3.5 100t5 103t8 92.5t10 82.5q1 7 1 11z" />
    <glyph glyph-name="U" unicode="&#xdc;" horiz-adv-x="543" 
d="M45 697l166 -9q-5 -34 -8.5 -73.5t-8 -104t-2.5 -120.5t8.5 -108.5t24.5 -83.5t46 -30q30 2 49.5 33t26 82t8.5 106.5t-3 118t-9 103t-9 74.5l168 9q1 -10 3 -31q5 -52 8 -82.5t6.5 -90.5t2.5 -99t-5.5 -95t-15.5 -93t-29 -78.5t-44.5 -66t-65 -41t-85.5 -17.5
q-52 -1 -93 15.5t-69 42.5t-47 69.5t-29.5 82.5t-14 98t-3.5 100t5 103t8 92.5t10 82.5q1 7 1 11z" />
    <glyph glyph-name="U" unicode="&#xdb;" horiz-adv-x="543" 
d="M45 697l166 -9q-5 -34 -8.5 -73.5t-8 -104t-2.5 -120.5t8.5 -108.5t24.5 -83.5t46 -30q30 2 49.5 33t26 82t8.5 106.5t-3 118t-9 103t-9 74.5l168 9q1 -10 3 -31q5 -52 8 -82.5t6.5 -90.5t2.5 -99t-5.5 -95t-15.5 -93t-29 -78.5t-44.5 -66t-65 -41t-85.5 -17.5
q-52 -1 -93 15.5t-69 42.5t-47 69.5t-29.5 82.5t-14 98t-3.5 100t5 103t8 92.5t10 82.5q1 7 1 11z" />
    <glyph glyph-name="U" unicode="&#xda;" horiz-adv-x="543" 
d="M45 697l166 -9q-5 -34 -8.5 -73.5t-8 -104t-2.5 -120.5t8.5 -108.5t24.5 -83.5t46 -30q30 2 49.5 33t26 82t8.5 106.5t-3 118t-9 103t-9 74.5l168 9q1 -10 3 -31q5 -52 8 -82.5t6.5 -90.5t2.5 -99t-5.5 -95t-15.5 -93t-29 -78.5t-44.5 -66t-65 -41t-85.5 -17.5
q-52 -1 -93 15.5t-69 42.5t-47 69.5t-29.5 82.5t-14 98t-3.5 100t5 103t8 92.5t10 82.5q1 7 1 11z" />
    <glyph glyph-name="U" unicode="&#xd9;" horiz-adv-x="543" 
d="M45 697l166 -9q-5 -34 -8.5 -73.5t-8 -104t-2.5 -120.5t8.5 -108.5t24.5 -83.5t46 -30q30 2 49.5 33t26 82t8.5 106.5t-3 118t-9 103t-9 74.5l168 9q1 -10 3 -31q5 -52 8 -82.5t6.5 -90.5t2.5 -99t-5.5 -95t-15.5 -93t-29 -78.5t-44.5 -66t-65 -41t-85.5 -17.5
q-52 -1 -93 15.5t-69 42.5t-47 69.5t-29.5 82.5t-14 98t-3.5 100t5 103t8 92.5t10 82.5q1 7 1 11z" />
    <glyph glyph-name="V" unicode="V" horiz-adv-x="531" 
d="M131 3l-129 688q-5 -3 185 5l13 1l60 -493h9l60 493l205 -12l-159 -679z" />
    <glyph glyph-name="W" unicode="W" horiz-adv-x="864" 
d="M131 3l-129 688q-5 -3 186 5l12 1l57 -493h12l66 487l199 6l60 -493h9l60 493l204 -12l-159 -679l-216 -3l-45 426h-12l-69 -423z" />
    <glyph glyph-name="X" unicode="X" horiz-adv-x="587" 
d="M193 363l-186 328l180 3l111 -208l108 208l190 -6l-211 -361l178 -324l-184 3l-99 189l-102 -192l-183 -3z" />
    <glyph glyph-name="Y" unicode="Y" horiz-adv-x="509" 
d="M158 291l-168 403q-3 0 47 0.5t100 1.5l51 1l60 -268h9l61 268l204 -6l-192 -403l9 -285h-184z" />
    <glyph glyph-name="Y" unicode="&#x178;" horiz-adv-x="509" 
d="M158 291l-168 403q-3 0 47 0.5t100 1.5l51 1l60 -268h9l61 268l204 -6l-192 -403l9 -285h-184z" />
    <glyph glyph-name="Y" unicode="&#xdd;" horiz-adv-x="509" 
d="M158 291l-168 403q-3 0 47 0.5t100 1.5l51 1l60 -268h9l61 268l204 -6l-192 -403l9 -285h-184z" />
    <glyph glyph-name="Z" unicode="Z" horiz-adv-x="497" 
d="M22 691l453 6l3 -193l-231 -333l222 9v-180l-450 3l-6 153l294 382h-285v153z" />
    <glyph glyph-name="bracketleft" unicode="[" horiz-adv-x="334" 
d="M199 620l3 -535h123v-141l-288 3l-3 811l291 3v-141h-126z" />
    <glyph glyph-name="backslash" unicode="\" horiz-adv-x="430" 
d="M50 665l147 39l183 -691l-147 -42q-27 107 -92.5 351.5t-90.5 342.5z" />
    <glyph glyph-name="bracketright" unicode="]" horiz-adv-x="333" 
d="M133 85v535h-126v141l291 -3l-3 -811l-288 -3v141h126z" />
    <glyph glyph-name="asciicircum" unicode="^" horiz-adv-x="375" 
d="M103 455l-93 59l117 163l111 3l126 -159l-93 -66l-84 114z" />
    <glyph glyph-name="underscore" unicode="_" horiz-adv-x="537" 
d="M19 1l-3 150h505v-156z" />
    <glyph glyph-name="grave" unicode="`" horiz-adv-x="191" 
d="M11 686l129 21l36 -162l-96 -33z" />
    <glyph glyph-name="a" unicode="a" horiz-adv-x="496" 
d="M158 -5l-156 11l123 620l219 6l153 -621l-181 -16l-16 93h-129zM191 225l84 2l-41 227h-11z" />
    <glyph glyph-name="a" unicode="&#xe5;" horiz-adv-x="496" 
d="M158 -5l-156 11l123 620l219 6l153 -621l-181 -16l-16 93h-129zM191 225l84 2l-41 227h-11z" />
    <glyph glyph-name="a" unicode="&#xe4;" horiz-adv-x="496" 
d="M158 -5l-156 11l123 620l219 6l153 -621l-181 -16l-16 93h-129zM191 225l84 2l-41 227h-11z" />
    <glyph glyph-name="a" unicode="&#xe3;" horiz-adv-x="496" 
d="M158 -5l-156 11l123 620l219 6l153 -621l-181 -16l-16 93h-129zM191 225l84 2l-41 227h-11z" />
    <glyph glyph-name="a" unicode="&#xe2;" horiz-adv-x="496" 
d="M158 -5l-156 11l123 620l219 6l153 -621l-181 -16l-16 93h-129zM191 225l84 2l-41 227h-11z" />
    <glyph glyph-name="a" unicode="&#xe1;" horiz-adv-x="496" 
d="M158 -5l-156 11l123 620l219 6l153 -621l-181 -16l-16 93h-129zM191 225l84 2l-41 227h-11z" />
    <glyph glyph-name="a" unicode="&#xe0;" horiz-adv-x="496" 
d="M158 -5l-156 11l123 620l219 6l153 -621l-181 -16l-16 93h-129zM191 225l84 2l-41 227h-11z" />
    <glyph glyph-name="b" unicode="b" horiz-adv-x="463" 
d="M354 364q106 -56 93 -186q-5 -51 -30.5 -88t-62.5 -55.5t-80 -29.5t-85.5 -11.5t-77 1t-56.5 5.5l-21 3v615q5 1 14 3.5t35.5 7.5t52.5 8.5t61 5t65 -0.5t60.5 -10.5t51.5 -23t34 -40t11 -59.5q-3 -92 -65 -145zM184 400q53 -2 75.5 34t0 70.5t-77.5 28.5zM184 140
q66 -1 94 35t0 70.5t-96 31.5z" />
    <glyph glyph-name="c" unicode="c" horiz-adv-x="495" 
d="M481 474l-164 -69q1 4 1.5 10t-1.5 22t-7.5 27.5t-19 20.5t-33.5 8q-37 -3 -55.5 -95.5t-3 -181.5t58.5 -84q16 2 31 18.5t22 31.5l7 16l173 -44q-18 -76 -81 -121.5t-141 -45.5q-48 0 -91 18t-79.5 55t-59 100.5t-24.5 146.5q-1 65 15 125t48 108.5t85 77.5t120 28
q48 -1 87.5 -20t62 -46.5t35 -55t14.5 -50.5z" />
    <glyph glyph-name="c" unicode="&#xe7;" horiz-adv-x="495" 
d="M481 474l-164 -69q1 4 1.5 10t-1.5 22t-7.5 27.5t-19 20.5t-33.5 8q-37 -3 -55.5 -95.5t-3 -181.5t58.5 -84q16 2 31 18.5t22 31.5l7 16l173 -44q-18 -76 -81 -121.5t-141 -45.5q-48 0 -91 18t-79.5 55t-59 100.5t-24.5 146.5q-1 65 15 125t48 108.5t85 77.5t120 28
q48 -1 87.5 -20t62 -46.5t35 -55t14.5 -50.5z" />
    <glyph glyph-name="d" unicode="d" horiz-adv-x="426" 
d="M31 632q69 6 127 -4.5t99.5 -33.5t73 -55.5t49.5 -73t26.5 -83t7.5 -86.5q-4 -163 -108 -241.5t-269 -51.5zM168 153q33 -1 56.5 29.5t29 75t0 89.5t-28.5 77t-57 33v-304z" />
    <glyph glyph-name="e" unicode="e" horiz-adv-x="408" 
d="M36 624l341 16l6 -150h-183l-9 -107l118 -5l-3 -126l-115 3l-2 -107l205 -5l2 -148l-363 11z" />
    <glyph glyph-name="e" unicode="&#xeb;" horiz-adv-x="408" 
d="M36 624l341 16l6 -150h-183l-9 -107l118 -5l-3 -126l-115 3l-2 -107l205 -5l2 -148l-363 11z" />
    <glyph glyph-name="e" unicode="&#xea;" horiz-adv-x="408" 
d="M36 624l341 16l6 -150h-183l-9 -107l118 -5l-3 -126l-115 3l-2 -107l205 -5l2 -148l-363 11z" />
    <glyph glyph-name="e" unicode="&#xe9;" horiz-adv-x="408" 
d="M36 624l341 16l6 -150h-183l-9 -107l118 -5l-3 -126l-115 3l-2 -107l205 -5l2 -148l-363 11z" />
    <glyph glyph-name="e" unicode="&#xe8;" horiz-adv-x="408" 
d="M36 624l341 16l6 -150h-183l-9 -107l118 -5l-3 -126l-115 3l-2 -107l205 -5l2 -148l-363 11z" />
    <glyph glyph-name="f" unicode="f" horiz-adv-x="387" 
d="M35 632h341l6 -151l-181 8l-2 -84l145 -6l-3 -126l-142 3l16 -276l-183 6z" />
    <glyph glyph-name="g" unicode="g" horiz-adv-x="509" 
d="M481 474l-164 -69q1 2 1 5.5t-0.5 13t-2.5 18t-6 19t-10.5 17.5t-18 11.5t-25.5 3.5q-31 -2 -48 -69t-15 -150q2 -64 19 -105t46 -37q25 3 43.5 23.5t27.5 50t13 55t4 46.5h142v-320h-140v68q-22 -36 -63.5 -51t-87.5 -2.5t-87.5 46t-68.5 102t-26 157.5q0 52 10 100.5
t31 92.5t52 76.5t76 51.5t99 18q39 -1 72.5 -13.5t55.5 -31.5t38 -42.5t24 -45t9 -39.5z" />
    <glyph glyph-name="h" unicode="h" horiz-adv-x="537" 
d="M32 629l161 -3l8 -202h140l-11 210l158 -2l25 -626h-167l-5 265l-137 2l3 -267l-172 -3z" />
    <glyph glyph-name="i" unicode="i" horiz-adv-x="227" 
d="M37 623l150 3l11 -623l-167 -3z" />
    <glyph glyph-name="i" unicode="&#xef;" horiz-adv-x="227" 
d="M37 623l150 3l11 -623l-167 -3z" />
    <glyph glyph-name="i" unicode="&#xee;" horiz-adv-x="227" 
d="M37 623l150 3l11 -623l-167 -3z" />
    <glyph glyph-name="i" unicode="&#xed;" horiz-adv-x="227" 
d="M37 623l150 3l11 -623l-167 -3z" />
    <glyph glyph-name="i" unicode="&#xec;" horiz-adv-x="227" 
d="M37 623l150 3l11 -623l-167 -3z" />
    <glyph glyph-name="j" unicode="j" horiz-adv-x="296" 
d="M3 14l6 183q3 -1 9.5 -3t23 -6t30.5 -4.5t28 4t20 14.5q6 16 5 60t-6 106t-10.5 119t-10.5 96l-5 40l150 8q3 -12 6.5 -34t11 -86t10.5 -122.5t-0.5 -130.5t-16.5 -124q-8 -38 -27 -65t-41.5 -40t-48 -20t-49.5 -6.5t-43 2.5t-30 6z" />
    <glyph glyph-name="k" unicode="k" horiz-adv-x="464" 
d="M37 629l161 3v-298h22l49 300l172 -11l-109 -295l131 -292l-175 -36l-74 268h-16l5 -268l-172 -2z" />
    <glyph glyph-name="l" unicode="l" horiz-adv-x="364" 
d="M29 628h159l2 -464l175 -6v-150h-328z" />
    <glyph glyph-name="m" unicode="m" horiz-adv-x="644" 
d="M34 629l232 6l61 -266h2l82 263l189 -3l16 -626l-178 3l9 391h-11l-47 -222l-128 -8l-60 224l-8 -2l8 -389l-167 -5v634z" />
    <glyph glyph-name="n" unicode="n" horiz-adv-x="490" 
d="M38 634h192l101 -325h5l-27 320l145 3l2 -629l-139 -5l-137 366h-11l22 -364h-161z" />
    <glyph glyph-name="n" unicode="&#xf1;" horiz-adv-x="490" 
d="M38 634h192l101 -325h5l-27 320l145 3l2 -629l-139 -5l-137 366h-11l22 -364h-161z" />
    <glyph glyph-name="o" unicode="o" horiz-adv-x="497" 
d="M241 493q-25 -5 -41 -62t-17 -123.5t16.5 -121t49.5 -54.5q44 0 59.5 94t-4.5 184.5t-63 82.5zM260 -15q-46 -3 -89.5 18.5t-77.5 60.5t-55.5 96.5t-23.5 124.5q-1 47 6.5 97t26 98t45.5 86t68.5 60.5t91.5 22.5q44 -1 85 -23t74 -62.5t52.5 -107t18.5 -149.5
q-1 -57 -14.5 -111t-39 -101t-69 -77.5t-99.5 -32.5z" />
    <glyph glyph-name="o" unicode="&#xf8;" horiz-adv-x="497" 
d="M241 493q-25 -5 -41 -62t-17 -123.5t16.5 -121t49.5 -54.5q44 0 59.5 94t-4.5 184.5t-63 82.5zM260 -15q-46 -3 -89.5 18.5t-77.5 60.5t-55.5 96.5t-23.5 124.5q-1 47 6.5 97t26 98t45.5 86t68.5 60.5t91.5 22.5q44 -1 85 -23t74 -62.5t52.5 -107t18.5 -149.5
q-1 -57 -14.5 -111t-39 -101t-69 -77.5t-99.5 -32.5z" />
    <glyph glyph-name="o" unicode="&#xf6;" horiz-adv-x="497" 
d="M241 493q-25 -5 -41 -62t-17 -123.5t16.5 -121t49.5 -54.5q44 0 59.5 94t-4.5 184.5t-63 82.5zM260 -15q-46 -3 -89.5 18.5t-77.5 60.5t-55.5 96.5t-23.5 124.5q-1 47 6.5 97t26 98t45.5 86t68.5 60.5t91.5 22.5q44 -1 85 -23t74 -62.5t52.5 -107t18.5 -149.5
q-1 -57 -14.5 -111t-39 -101t-69 -77.5t-99.5 -32.5z" />
    <glyph glyph-name="o" unicode="&#xf5;" horiz-adv-x="497" 
d="M241 493q-25 -5 -41 -62t-17 -123.5t16.5 -121t49.5 -54.5q44 0 59.5 94t-4.5 184.5t-63 82.5zM260 -15q-46 -3 -89.5 18.5t-77.5 60.5t-55.5 96.5t-23.5 124.5q-1 47 6.5 97t26 98t45.5 86t68.5 60.5t91.5 22.5q44 -1 85 -23t74 -62.5t52.5 -107t18.5 -149.5
q-1 -57 -14.5 -111t-39 -101t-69 -77.5t-99.5 -32.5z" />
    <glyph glyph-name="o" unicode="&#xf4;" horiz-adv-x="497" 
d="M241 493q-25 -5 -41 -62t-17 -123.5t16.5 -121t49.5 -54.5q44 0 59.5 94t-4.5 184.5t-63 82.5zM260 -15q-46 -3 -89.5 18.5t-77.5 60.5t-55.5 96.5t-23.5 124.5q-1 47 6.5 97t26 98t45.5 86t68.5 60.5t91.5 22.5q44 -1 85 -23t74 -62.5t52.5 -107t18.5 -149.5
q-1 -57 -14.5 -111t-39 -101t-69 -77.5t-99.5 -32.5z" />
    <glyph glyph-name="o" unicode="&#xf3;" horiz-adv-x="497" 
d="M241 493q-25 -5 -41 -62t-17 -123.5t16.5 -121t49.5 -54.5q44 0 59.5 94t-4.5 184.5t-63 82.5zM260 -15q-46 -3 -89.5 18.5t-77.5 60.5t-55.5 96.5t-23.5 124.5q-1 47 6.5 97t26 98t45.5 86t68.5 60.5t91.5 22.5q44 -1 85 -23t74 -62.5t52.5 -107t18.5 -149.5
q-1 -57 -14.5 -111t-39 -101t-69 -77.5t-99.5 -32.5z" />
    <glyph glyph-name="o" unicode="&#xf2;" horiz-adv-x="497" 
d="M241 493q-25 -5 -41 -62t-17 -123.5t16.5 -121t49.5 -54.5q44 0 59.5 94t-4.5 184.5t-63 82.5zM260 -15q-46 -3 -89.5 18.5t-77.5 60.5t-55.5 96.5t-23.5 124.5q-1 47 6.5 97t26 98t45.5 86t68.5 60.5t91.5 22.5q44 -1 85 -23t74 -62.5t52.5 -107t18.5 -149.5
q-1 -57 -14.5 -111t-39 -101t-69 -77.5t-99.5 -32.5z" />
    <glyph glyph-name="p" unicode="p" horiz-adv-x="430" 
d="M34 3v615q221 58 328 -27q72 -57 63 -153q-8 -95 -87 -161q-65 -55 -156 -66l2 -211zM179 514l3 -153q53 -1 75 39.5t-0.5 79.5t-77.5 34z" />
    <glyph glyph-name="q" unicode="q" horiz-adv-x="507" 
d="M241 496q-24 -5 -40 -62.5t-17 -123.5t16 -120.5t49 -54.5q8 0 19 5l-27 52l58 60l10 -11q8 42 5 88t-11 84.5t-24.5 62t-37.5 20.5zM372 -78l-41 82q-33 -13 -71 -17q-95 -4 -168.5 81.5t-77.5 219.5q-1 47 6.5 96.5t26 98t45.5 86t68.5 60.5t91.5 22q45 -1 86.5 -22.5
t74.5 -62t52 -107t17 -149.5q0 -115 -50 -205l61 -66z" />
    <glyph glyph-name="r" unicode="r" horiz-adv-x="451" 
d="M34 3v615q125 30 209.5 19.5t128 -54t53.5 -98.5t-15.5 -114t-77.5 -100l109 -238l-175 -35l-60 218q-3 -1 -7.5 -2t-9 -1.5t-7.5 -1.5l2 -211zM179 514l3 -153q54 -1 77 39.5t-0.5 79.5t-79.5 34z" />
    <glyph glyph-name="s" unicode="s" horiz-adv-x="491" 
d="M446 438l-161 -28q0 2 0.5 5.5t0 13t-2.5 17t-7.5 14t-15.5 8.5q-15 2 -33 -12.5t-25 -35.5t6 -43q7 -8 30.5 -13.5t53 -9t62.5 -13t60.5 -23.5t45.5 -43t19 -70q1 -50 -24.5 -94.5t-72 -73t-104 -39t-129.5 9t-140 69.5l82 137q24 -25 70.5 -42.5t87.5 -17t47 23.5
q3 11 -16.5 20t-51.5 16t-69 19.5t-69 29t-52.5 48t-17.5 72.5q7 129 106 203q82 60 175 49t129 -90q20 -46 16 -107z" />
    <glyph glyph-name="t" unicode="t" horiz-adv-x="393" 
d="M117 462h-115l3 164h374l11 -161h-120l11 -462l-170 -3z" />
    <glyph glyph-name="u" unicode="u" horiz-adv-x="498" 
d="M43 632l150 -8q-3 -31 -6.5 -67t-7.5 -95t-2.5 -110t7.5 -98.5t22.5 -75.5t41.5 -27q27 1 45 29t24 75t8 97.5t-2.5 107t-8.5 93.5t-9 68l154 8q0 -9 2 -28q7 -62 10 -99t5 -108t-3 -117t-18.5 -104t-38 -92t-66 -58.5t-96.5 -24.5q-60 -1 -104.5 23.5t-70 60.5t-39 97
t-17.5 109.5t-0.5 122.5t7.5 111.5t12 99.5q1 7 1 10z" />
    <glyph glyph-name="u" unicode="&#xfc;" horiz-adv-x="498" 
d="M43 632l150 -8q-3 -31 -6.5 -67t-7.5 -95t-2.5 -110t7.5 -98.5t22.5 -75.5t41.5 -27q27 1 45 29t24 75t8 97.5t-2.5 107t-8.5 93.5t-9 68l154 8q0 -9 2 -28q7 -62 10 -99t5 -108t-3 -117t-18.5 -104t-38 -92t-66 -58.5t-96.5 -24.5q-60 -1 -104.5 23.5t-70 60.5t-39 97
t-17.5 109.5t-0.5 122.5t7.5 111.5t12 99.5q1 7 1 10z" />
    <glyph glyph-name="u" unicode="&#xfb;" horiz-adv-x="498" 
d="M43 632l150 -8q-3 -31 -6.5 -67t-7.5 -95t-2.5 -110t7.5 -98.5t22.5 -75.5t41.5 -27q27 1 45 29t24 75t8 97.5t-2.5 107t-8.5 93.5t-9 68l154 8q0 -9 2 -28q7 -62 10 -99t5 -108t-3 -117t-18.5 -104t-38 -92t-66 -58.5t-96.5 -24.5q-60 -1 -104.5 23.5t-70 60.5t-39 97
t-17.5 109.5t-0.5 122.5t7.5 111.5t12 99.5q1 7 1 10z" />
    <glyph glyph-name="u" unicode="&#xfa;" horiz-adv-x="498" 
d="M43 632l150 -8q-3 -31 -6.5 -67t-7.5 -95t-2.5 -110t7.5 -98.5t22.5 -75.5t41.5 -27q27 1 45 29t24 75t8 97.5t-2.5 107t-8.5 93.5t-9 68l154 8q0 -9 2 -28q7 -62 10 -99t5 -108t-3 -117t-18.5 -104t-38 -92t-66 -58.5t-96.5 -24.5q-60 -1 -104.5 23.5t-70 60.5t-39 97
t-17.5 109.5t-0.5 122.5t7.5 111.5t12 99.5q1 7 1 10z" />
    <glyph glyph-name="u" unicode="&#xf9;" horiz-adv-x="498" 
d="M43 632l150 -8q-3 -31 -6.5 -67t-7.5 -95t-2.5 -110t7.5 -98.5t22.5 -75.5t41.5 -27q27 1 45 29t24 75t8 97.5t-2.5 107t-8.5 93.5t-9 68l154 8q0 -9 2 -28q7 -62 10 -99t5 -108t-3 -117t-18.5 -104t-38 -92t-66 -58.5t-96.5 -24.5q-60 -1 -104.5 23.5t-70 60.5t-39 97
t-17.5 109.5t-0.5 122.5t7.5 111.5t12 99.5q1 7 1 10z" />
    <glyph glyph-name="v" unicode="v" horiz-adv-x="486" 
d="M122 0l-118 626q-4 -2 163 5l18 1l54 -449h8l55 449l186 -11l-145 -618z" />
    <glyph glyph-name="w" unicode="w" horiz-adv-x="790" 
d="M122 0l-118 626q-4 -2 163 5l18 1l51 -449h11l60 443l181 6l54 -449h9l54 449l186 -11l-145 -618l-196 -3l-41 388h-11l-63 -385z" />
    <glyph glyph-name="x" unicode="x" horiz-adv-x="535" 
d="M175 328l-169 298l164 3l101 -189l99 189l172 -6l-192 -328l162 -295l-167 3l-90 172l-93 -175l-167 -2z" />
    <glyph glyph-name="y" unicode="y" horiz-adv-x="465" 
d="M145 263l-153 366l181 3v0l54 -244h8l55 244l186 -6l-175 -366l8 -260h-167z" />
    <glyph glyph-name="y" unicode="&#xff;" horiz-adv-x="465" 
d="M145 263l-153 366l181 3v0l54 -244h8l55 244l186 -6l-175 -366l8 -260h-167z" />
    <glyph glyph-name="y" unicode="&#xfd;" horiz-adv-x="465" 
d="M145 263l-153 366l181 3v0l54 -244h8l55 244l186 -6l-175 -366l8 -260h-167z" />
    <glyph glyph-name="z" unicode="z" horiz-adv-x="455" 
d="M21 626l413 6l3 -175l-211 -304l202 9v-164l-409 2l-6 140l268 347h-260v139z" />
    <glyph glyph-name="braceleft" unicode="{" horiz-adv-x="392" 
d="M224 788l114 -102l-12 -19t-31.5 -58t-34.5 -82q-33 -94 -33 -178q-4 -87 27 -186q26 -82 87 -162l-120 -96q-72 93 -111 210q-23 68 -33 156l-72 3v135h72q14 99 39 166q9 25 19.5 50.5t20.5 46t20 39t18.5 32t15.5 23.5t10.5 15.5t3.5 6.5z" />
    <glyph glyph-name="verticalbar" unicode="|" horiz-adv-x="229" 
d="M35 761l159 -3l-3 -811l-156 -3v817z" />
    <glyph glyph-name="braceright" unicode="}" horiz-adv-x="392" 
d="M53 686l114 102q0 -1 7 -11t19 -29.5t25.5 -44t29 -59t27.5 -69.5q27 -73 36 -166h75v-135l-72 -3q-10 -88 -33 -156q-39 -117 -111 -210l-120 96q61 80 87 162q32 100 27 186q0 84 -33 177q-15 44 -34.5 83t-31.5 58z" />
    <glyph glyph-name="asciitilde" unicode="~" horiz-adv-x="393" 
d="M139 304l-126 12q2 27 9 50.5t19.5 45t33.5 34.5t49 14q13 1 26 -1t26 -7t23.5 -10t25 -12.5t22.5 -11.5q6 12 6 28l126 -16q-19 -140 -117 -144q-16 0 -33 4.5t-27.5 9.5t-31 15t-28.5 13q0 -2 -1.5 -10.5t-1.5 -13.5z" />
    <glyph glyph-name="nonbreakingspace" unicode="&#xa0;" horiz-adv-x="292" 
 />
    <glyph glyph-name="softhyphen" unicode="&#xad;" 
 />
    <glyph glyph-name="quoteleft" unicode="&#x2018;" horiz-adv-x="159" 
d="M21 514l-6 82l45 90l48 -12l-15 -75l51 -3l-6 -84z" />
    <glyph glyph-name="quoteright" unicode="&#x2019;" horiz-adv-x="158" 
d="M139 686l3 -84l-45 -90l-45 15l12 72l-51 6l9 81h117z" />
    <glyph glyph-name="quotesinglbase" unicode="&#x201a;" horiz-adv-x="159" 
d="M140 172l3 -81l-45 -90l-45 12l12 75l-51 3l9 84z" />
    <glyph glyph-name="quotedblleft" unicode="&#x201c;" horiz-adv-x="305" 
d="M165 514l-3 82l45 90l45 -12l-12 -75l51 -3l-9 -84zM18 514l-3 82l45 90l45 -12l-12 -75l51 -3l-9 -84z" />
    <glyph glyph-name="quotedblright" unicode="&#x201d;" horiz-adv-x="305" 
d="M136 686l6 -84l-45 -90l-45 15l12 72l-51 6l9 81h114zM283 686l6 -84l-45 -90l-48 15l15 72l-51 6l9 81h114z" />
    <glyph glyph-name="quotedblbase" unicode="&#x201e;" horiz-adv-x="306" 
d="M137 172l6 -81l-45 -90l-48 12l15 75l-51 3l6 84zM284 172l6 -81l-45 -90l-48 12l15 75l-51 3l6 84z" />
    </font>
</defs>
</svg>
